<?xml version="1.0" encoding="UTF-8" standalone="no"?>
<!-- Created with Inkscape (http://www.inkscape.org/) -->

<svg
   width="400"
   height="200"
   viewBox="0 0 400 200"
   version="1.1"
   id="SVGRoot"
   sodipodi:docname="githublogo.svg"
   inkscape:version="1.2.1 (9c6d41e410, 2022-07-14, custom)"
   xmlns:inkscape="http://www.inkscape.org/namespaces/inkscape"
   xmlns:sodipodi="http://sodipodi.sourceforge.net/DTD/sodipodi-0.dtd"
   xmlns="http://www.w3.org/2000/svg"
   xmlns:svg="http://www.w3.org/2000/svg">
  <sodipodi:namedview
     id="namedview1094"
     pagecolor="#505050"
     bordercolor="#eeeeee"
     borderopacity="1"
     inkscape:showpageshadow="0"
     inkscape:pageopacity="0"
     inkscape:pagecheckerboard="0"
     inkscape:deskcolor="#505050"
     inkscape:document-units="px"
     showgrid="true"
     inkscape:zoom="1.829812"
     inkscape:cx="303.30985"
     inkscape:cy="106.56832"
     inkscape:window-width="2527"
     inkscape:window-height="1202"
     inkscape:window-x="0"
     inkscape:window-y="32"
     inkscape:window-maximized="1"
     inkscape:current-layer="layer1">
    <inkscape:grid
       type="xygrid"
       id="grid1394" />
  </sodipodi:namedview>
  <defs
     id="defs1089" />
  <g
     inkscape:label="Layer 1"
     inkscape:groupmode="layer"
     id="layer1">
    <g
       id="g32"
       transform="matrix(0.75002655,0,0,-0.73306609,251.45653,113.85835)">
      <path
         d="M 0,0 -24.848,6.991 -56.831,8.7 v 0.113 l -0.73,-0.057 -0.728,0.057 V 8.7 l -33.21,-1.709 -23.93,-6.903 c -19.049,-5.494 -33.966,-20.374 -39.481,-39.417 -0.043,-0.147 -0.084,-0.29 -0.125,-0.428 l -3.069,-23.779 c -1.195,-9.257 6.016,-17.459 15.351,-17.459 H 27.633 c 9.335,0 16.546,8.202 15.35,17.459 l -3.069,23.779 c -0.022,0.077 -0.045,0.156 -0.068,0.236 C 34.269,-20.356 19.214,-5.406 0,0"
         style="fill:#363e51;fill-opacity:1;fill-rule:nonzero;stroke:none"
         id="path34" />
    </g>
    <g
       id="g36"
       transform="matrix(0.75002655,0,0,-0.73306609,170.33207,37.10758)">
      <path
         d="m 0,0 -8.025,1.452 c 0.079,0.435 2.024,10.782 10.271,21.119 7.584,9.506 22.129,20.837 48.356,20.837 26.222,0 40.177,-10.55 47.265,-19.4 7.777,-9.708 9.165,-19.466 9.22,-19.878 L 99.006,3.042 C 98.819,4.341 93.892,35.253 50.602,35.253 6.883,35.253 0.064,0.353 0,0"
         style="fill:#363e51;fill-opacity:1;fill-rule:nonzero;stroke:none"
         id="path38" />
    </g>
    <g
       id="g40"
       transform="matrix(0.75002655,0,0,-0.73306609,263.10177,61.35894)">
      <path
         d="m 0,0 c -0.302,4.897 -1.16,9.769 -2.548,14.51 -1.36,4.748 -3.282,9.365 -5.781,13.687 -2.507,4.312 -5.571,8.344 -9.189,11.827 -3.592,3.505 -7.727,6.441 -12.145,8.729 -4.415,2.293 -9.205,3.814 -14.054,4.324 -4.839,0.535 -9.706,0.257 -14.345,-1.069 4.521,-1.752 8.789,-3.181 12.854,-4.85 4.062,-1.655 7.89,-3.522 11.479,-5.696 7.183,-4.361 12.933,-10.661 16.872,-18.036 1.984,-3.679 3.544,-7.611 4.724,-11.673 0.313,-1.096 0.588,-2.203 0.84,-3.317 -11.718,16.008 -34.978,18.911 -61.794,18.911 -26.353,0 -49.277,-2.8 -61.183,-18.092 0.201,0.837 0.407,1.672 0.642,2.498 1.181,4.062 2.741,7.994 4.725,11.673 3.938,7.375 9.688,13.675 16.871,18.036 3.59,2.174 7.416,4.041 11.479,5.696 4.066,1.669 8.333,3.098 12.854,4.85 -4.639,1.326 -9.506,1.604 -14.345,1.069 -4.849,-0.51 -9.638,-2.031 -14.054,-4.324 -4.418,-2.288 -8.553,-5.224 -12.146,-8.729 -3.616,-3.483 -6.68,-7.515 -9.188,-11.827 -2.499,-4.322 -4.421,-8.939 -5.781,-13.687 -1.388,-4.741 -2.245,-9.613 -2.548,-14.51 -0.347,-4.895 -0.147,-9.814 0.559,-14.669 0.611,-4.115 2.426,-17.684 4.141,-24.491 l 6.39,-39.313 h 22.624 c 11.132,-6.568 24.535,-10.043 38.96,-10.043 14.426,0 27.828,3.475 38.961,10.043 h 23.058 l 7.461,45.908 c 1.347,6.789 2.6,14.881 3.047,17.896 C 0.147,-9.814 0.348,-4.895 0,0"
         style="fill:#363e51;fill-opacity:1;fill-rule:nonzero;stroke:none"
         id="path42" />
    </g>
    <g
       id="g44"
       transform="matrix(0.75002655,0,0,-0.73306609,241.35609,94.47931)">
      <path
         d="m 0,0 c -17.355,0 -29.364,5.291 -36.437,9.788 -4.749,3.02 -10.769,3.02 -15.518,0 C -59.028,5.291 -71.037,0 -88.391,0 h -0.025 c 6.285,-20.176 25.317,-29.389 44.22,-29.389 18.902,0 37.936,9.213 44.22,29.389 z"
         style="fill:#ffffff;fill-opacity:1;fill-rule:nonzero;stroke:none"
         id="path46" />
    </g>
    <g
       id="g48"
       transform="matrix(0.75002655,0,0,-0.73306609,174.02912,94.42888)">
      <path
         d="m 0,0 1.219,-0.607 c 0.431,-0.226 0.913,-0.434 1.366,-0.651 0.94,-0.407 1.867,-0.855 2.843,-1.224 1.91,-0.816 3.902,-1.498 5.888,-2.199 4.002,-1.334 8.115,-2.463 12.299,-3.423 1.052,-0.209 2.102,-0.448 3.155,-0.683 1.054,-0.221 2.12,-0.401 3.183,-0.607 2.121,-0.474 4.276,-0.732 6.432,-1.126 1.077,-0.216 2.164,-0.324 3.252,-0.48 l 3.275,-0.498 c 2.192,-0.301 4.397,-0.544 6.629,-0.955 -2.186,-0.523 -4.396,-0.933 -6.622,-1.303 -2.226,-0.252 -4.469,-0.564 -6.721,-0.665 -2.252,-0.102 -4.515,-0.198 -6.781,-0.116 -1.13,0.047 -2.269,0.042 -3.4,0.138 -1.132,0.097 -2.266,0.191 -3.398,0.313 -4.521,0.528 -9.048,1.352 -13.458,2.73 -2.208,0.682 -4.386,1.48 -6.519,2.447 -1.064,0.477 -2.123,1.004 -3.161,1.577 -0.52,0.307 -1.036,0.576 -1.554,0.914 -0.53,0.341 -0.986,0.63 -1.616,1.106 z"
         style="fill:#363e51;fill-opacity:1;fill-rule:nonzero;stroke:none"
         id="path50" />
    </g>
    <g
       id="g52"
       transform="matrix(0.75002655,0,0,-0.73306609,244.60082,100.78661)">
      <path
         d="m 0,0 c -0.318,-0.274 -0.565,-0.471 -0.838,-0.687 -0.27,-0.22 -0.533,-0.413 -0.8,-0.614 -0.533,-0.404 -1.075,-0.778 -1.617,-1.143 -1.076,-0.763 -2.206,-1.401 -3.317,-2.086 -2.268,-1.269 -4.571,-2.472 -6.958,-3.467 -2.363,-1.056 -4.807,-1.905 -7.259,-2.699 -1.232,-0.378 -2.472,-0.732 -3.712,-1.075 l -3.764,-0.857 c -5.038,-1.013 -10.152,-1.622 -15.257,-1.549 -1.276,0.013 -2.542,-0.031 -3.814,0.091 l -3.794,0.315 c -1.26,0.087 -2.513,0.356 -3.758,0.56 -1.246,0.227 -2.484,0.457 -3.712,0.729 1.257,0.195 2.503,0.349 3.743,0.499 1.238,0.162 2.471,0.223 3.696,0.47 l 3.658,0.57 c 1.218,0.136 2.419,0.422 3.619,0.655 1.197,0.266 2.401,0.432 3.587,0.708 l 3.541,0.865 c 1.186,0.237 2.338,0.629 3.502,0.942 1.158,0.341 2.33,0.618 3.469,1.016 l 3.428,1.116 c 1.12,0.435 2.241,0.861 3.369,1.262 1.131,0.393 2.216,0.906 3.324,1.352 1.109,0.445 2.19,0.949 3.278,1.438 2.17,0.992 4.297,2.058 6.392,3.172 1.035,0.568 2.08,1.137 3.087,1.733 0.513,0.291 1.014,0.592 1.503,0.897 0.247,0.149 0.503,0.297 0.732,0.448 l 0.665,0.417 z"
         style="fill:#363e51;fill-opacity:1;fill-rule:nonzero;stroke:none"
         id="path54" />
    </g>
    <g
       id="g56"
       transform="matrix(0.75002655,0,0,-0.73306609,180.74021,72.34526)">
      <path
         d="M 0,0 V 0 C 4.306,-9.88 15.806,-14.398 25.686,-10.092 21.379,-0.212 9.88,4.306 0,0"
         style="fill:#ffffff;fill-opacity:1;fill-rule:nonzero;stroke:none"
         id="path58" />
    </g>
    <g
       id="g60"
       transform="matrix(0.75002655,0,0,-0.73306609,236.15425,72.34526)">
      <path
         d="M 0,0 V 0 C -4.306,-9.88 -15.806,-14.398 -25.686,-10.092 -21.379,-0.212 -9.88,4.306 0,0"
         style="fill:#ffffff;fill-opacity:1;fill-rule:nonzero;stroke:none"
         id="path62" />
    </g>
    <g
       id="g64"
       transform="matrix(0.75002655,0,0,-0.73306609,143.49996,127.4884)">
      <path
         d="m 0,0 -33.559,-45.604 c -2.918,-4.661 -3.91,-10.273 -2.767,-15.651 2.242,-10.54 12.036,-17.72 22.763,-16.683 l 76.036,7.346 z"
         style="fill:#363e51;fill-opacity:1;fill-rule:nonzero;stroke:none"
         id="path66" />
    </g>
    <g
       id="g68"
       transform="matrix(0.75002655,0,0,-0.73306609,272.97951,127.4884)">
      <path
         d="m 0,0 34.112,-45.604 c 2.918,-4.661 3.91,-10.273 2.767,-15.651 -2.241,-10.54 -12.036,-17.72 -22.762,-16.683 l -76.036,7.346 z"
         style="fill:#363e51;fill-opacity:1;fill-rule:nonzero;stroke:none"
         id="path70" />
    </g>
    <g
       id="g72"
       transform="matrix(0.75002655,0,0,-0.73306609,184.63795,160.2824)">
      <path
         d="M 0,0 6.308,13.896 C -0.51,14.461 -5.044,13.119 -8.068,11.1 l -0.473,27.45 c -0.238,3.111 -2.773,5.548 -5.892,5.662 -3.687,0.136 -6.659,-2.989 -6.338,-6.664 l -1.704,-21.69 -5.838,27.722 c -0.929,2.979 -3.946,4.785 -7.011,4.199 -3.623,-0.693 -5.82,-4.404 -4.685,-7.915 l 6.112,-25.981 -1.061,0.712 -7.472,21.333 c -1.277,2.846 -4.488,4.281 -7.461,3.335 -3.515,-1.12 -5.255,-5.067 -3.709,-8.417 l 2.532,-6.101 -2.774,0.363 c -5.086,0.665 -9.271,-4.397 -7.278,-9.123 0.092,-0.217 0.193,-0.43 0.304,-0.637 l 7.585,-14.389 c 0,0 0.648,-19.966 13.635,-24.614 10.737,-3.843 17.37,3.26 17.37,3.26 0.419,-0.131 0.831,-0.251 1.238,-0.359 11.372,-3.016 21.162,4.358 21.346,16.123 z"
         style="fill:#ffffff;fill-opacity:1;fill-rule:nonzero;stroke:none"
         id="path74" />
    </g>
    <g
       id="g76"
       transform="matrix(0.75002655,0,0,-0.73306609,160.07307,153.67338)">
      <path
         d="m 0,0 c -0.166,2.674 -4.631,31.831 -4.631,31.831 -0.195,0.795 -0.038,1.616 0.359,2.281 0.403,0.663 1.334,1.057 2.027,1.206 0.719,0.157 1.426,0.02 1.986,-0.354 C 0.307,34.595 0.712,33.779 0.712,33.779 1.937,30.418 9.144,5.462 11.059,3.13 c 0.812,2.907 0.988,5.68 1,8.418 -0.007,2.734 -0.308,5.406 -0.737,8.052 -0.412,2.648 -0.868,5.288 -1.398,7.912 -0.544,2.621 -1.121,5.235 -1.758,7.837 l -0.07,0.284 -0.022,0.065 c -0.815,2.483 -2.689,4.573 -4.986,5.685 -2.291,1.148 -5.042,1.291 -7.395,0.466 -2.393,-0.809 -4.377,-2.62 -5.438,-4.827 -1.095,-2.196 -1.247,-4.846 -0.451,-7.124 l -0.068,0.244 c 0.673,-2.555 1.339,-5.112 2.116,-7.642 0.756,-2.535 1.624,-5.044 2.491,-7.553 0.866,-2.509 1.765,-5.01 2.717,-7.5 C -2.012,4.952 -1.043,2.467 0,0"
         style="fill:#363e51;fill-opacity:1;fill-rule:nonzero;stroke:none"
         id="path78" />
    </g>
    <g
       id="g80"
       transform="matrix(0.75002655,0,0,-0.73306609,168.36731,151.37895)">
      <path
         d="m 0,0 c 0.758,2.093 3.489,25.677 3.489,25.677 0.07,1.209 0.286,1.739 0.833,2.403 0.561,0.657 1.592,1.019 2.441,1.111 0.87,0.085 1.748,-0.162 2.434,-0.72 0.687,-0.554 1.149,-1.374 1.244,-2.275 l -0.008,0.199 c 0.049,-2.309 0.076,-4.618 0.064,-6.926 C 10.492,17.16 10.457,14.851 10.395,12.542 10.335,10.233 10.25,7.924 10.127,5.615 10.026,3.306 9.878,0.997 9.682,-1.312 l 7.136,0.024 c -0.213,2.309 -0.377,4.616 -0.494,6.925 -0.139,2.308 -0.24,4.616 -0.317,6.925 -0.078,2.308 -0.128,4.617 -0.15,6.925 -0.028,2.309 -0.018,4.617 0.015,6.926 l 10e-4,0.055 -0.009,0.144 c -0.14,2.321 -1.263,4.583 -3.034,6.116 C 11.079,34.29 8.649,35.09 6.305,34.906 3.932,34.757 1.657,33.56 0.149,31.749 -1.399,29.958 -2.123,27.482 -1.881,25.157 l -0.009,0.347 c -0.058,-2.117 -0.042,-4.237 -0.053,-6.357 -0.012,-2.12 -0.009,-4.239 0.096,-6.362 0.107,-2.124 0.283,-4.25 0.573,-6.38 C -0.979,4.274 -0.604,2.142 0,0"
         style="fill:#363e51;fill-opacity:1;fill-rule:nonzero;stroke:none"
         id="path82" />
    </g>
    <g
       id="g84"
       transform="matrix(0.75002655,0,0,-0.73306609,193.71147,148.68581)">
      <path
         d="m 0,0 -4.032,1.269 c -2.202,0.693 -4.546,1.183 -7.008,1.292 -2.454,0.119 -5.043,-0.189 -7.531,-1.041 -2.483,-0.849 -4.818,-2.32 -6.534,-4.264 -0.864,-0.964 -1.594,-2.024 -2.159,-3.153 -0.286,-0.564 -0.542,-1.139 -0.764,-1.732 -0.041,-0.112 -0.075,-0.229 -0.112,-0.343 -0.813,-0.243 -1.599,-0.57 -2.324,-0.998 -1.43,-0.813 -2.606,-1.939 -3.471,-3.17 -0.859,-1.24 -1.471,-2.557 -1.84,-3.906 -0.377,-1.342 -0.568,-2.71 -0.483,-4.06 0.736,1.121 1.53,2.132 2.364,3.041 0.844,0.9 1.723,1.692 2.654,2.277 0.924,0.591 1.858,0.998 2.782,1.184 0.918,0.21 1.835,0.194 2.755,0.082 l 2.838,2.09 c 0.059,0.016 0.19,0.252 0.297,0.394 0.113,0.164 0.235,0.331 0.362,0.494 0.245,0.332 0.491,0.665 0.765,0.974 0.534,0.627 1.085,1.209 1.654,1.741 1.146,1.046 2.326,1.969 3.742,2.538 1.672,0.703 3.614,0.854 5.642,0.642 l -4.885,-9.539 -0.459,-0.898 0.078,-1.01 0.338,-4.405 c -0.053,-2.217 -0.52,-4.361 -1.434,-6.247 -0.925,-1.915 -2.316,-3.543 -4.024,-4.724 -1.705,-1.189 -3.739,-1.897 -5.873,-2.103 -2.156,-0.21 -4.327,0.085 -6.576,0.8 l -1.957,0.621 -1.763,-1.599 -0.284,-0.258 c -0.132,-0.116 -0.279,-0.234 -0.429,-0.35 -0.3,-0.234 -0.622,-0.457 -0.954,-0.667 -0.663,-0.421 -1.372,-0.78 -2.101,-1.072 -1.458,-0.59 -3.009,-0.884 -4.583,-0.901 -1.576,0 -3.183,0.261 -4.769,0.801 -1.53,0.498 -2.835,1.226 -4.042,2.262 -2.419,2.017 -4.2,5.114 -5.422,8.498 -0.611,1.699 -1.094,3.481 -1.452,5.299 -0.18,0.909 -0.333,1.827 -0.453,2.745 -0.116,0.892 -0.218,1.897 -0.255,2.653 l -0.041,0.866 -0.375,0.709 -7.27,13.733 -0.227,0.43 -0.114,0.214 -0.057,0.125 c -0.087,0.166 -0.15,0.313 -0.196,0.445 -0.093,0.276 -0.138,0.545 -0.143,0.816 -0.011,0.537 0.146,1.111 0.493,1.634 0.007,0.009 0.013,0.02 0.02,0.03 0.876,1.324 2.681,1.671 4.082,0.922 l 0.468,-0.25 c 0.579,-0.31 1.047,-0.788 1.347,-1.373 0.816,-1.59 1.65,-3.174 2.513,-4.745 1.958,-3.511 4.034,-6.974 6.503,-10.282 -0.599,4.084 -1.592,8.014 -2.703,11.895 -1.134,3.873 -2.405,7.69 -3.731,11.485 l -1.01,2.841 -0.513,1.417 c -0.156,0.416 -0.197,0.584 -0.244,0.824 -0.11,0.895 0.169,1.868 0.827,2.469 0.618,0.606 1.724,1.017 2.549,0.856 0.832,-0.15 1.748,-0.851 2.092,-1.592 1.161,-2.273 9.932,-21.788 12.5,-26.014 -0.63,4.905 -1.507,9.725 -2.491,14.506 -0.498,2.388 -1.001,4.775 -1.581,7.136 -0.567,2.364 -1.358,4.65 -2.157,6.933 l -0.05,0.146 -0.061,0.135 c -1.303,2.891 -4.097,5.051 -7.215,5.537 -1.551,0.263 -3.177,0.13 -4.654,-0.372 -1.472,-0.504 -2.838,-1.387 -3.902,-2.531 -2.159,-2.267 -3.043,-5.617 -2.298,-8.631 0.181,-0.736 0.496,-1.504 0.734,-2.008 l 0.352,-0.746 c -1.032,-0.141 -2.045,-0.425 -2.981,-0.863 -1.784,-0.824 -3.305,-2.136 -4.389,-3.776 -1.089,-1.63 -1.724,-3.641 -1.69,-5.695 0.013,-1.023 0.191,-2.045 0.51,-2.996 0.163,-0.481 0.354,-0.928 0.561,-1.34 l 0.153,-0.313 0.112,-0.215 0.226,-0.429 6.847,-13.045 c 0.061,-0.873 0.149,-1.651 0.257,-2.487 0.142,-1.08 0.321,-2.15 0.534,-3.218 0.424,-2.133 0.996,-4.252 1.75,-6.345 0.765,-2.089 1.698,-4.159 2.938,-6.129 1.224,-1.97 2.746,-3.853 4.635,-5.434 0.924,-0.806 1.97,-1.493 3.043,-2.124 1.087,-0.584 2.273,-1.113 3.397,-1.473 2.229,-0.753 4.65,-1.172 7.104,-1.161 2.454,0.025 4.931,0.502 7.207,1.427 1.141,0.459 2.237,1.017 3.274,1.676 0.454,0.288 0.893,0.602 1.328,0.932 2.387,-0.562 4.951,-0.811 7.484,-0.549 3.254,0.314 6.507,1.435 9.251,3.352 2.753,1.899 4.977,4.543 6.402,7.51 1.435,2.97 2.098,6.214 2.148,9.371 l 0.002,0.168 -0.013,0.165 -0.282,3.626 6.524,12.781 z"
         style="fill:#363e51;fill-opacity:1;fill-rule:nonzero;stroke:none"
         id="path86" />
    </g>
    <g
       id="g88"
       transform="matrix(0.75002655,0,0,-0.73306609,231.98811,163.67715)">
      <path
         d="m 0,0 c 0.185,-11.765 9.975,-19.139 21.347,-16.123 0.406,0.108 0.818,0.227 1.237,0.359 0,0 6.634,-7.103 17.371,-3.26 C 52.941,-14.376 53.59,5.59 53.59,5.59 l 7.585,14.389 c 0.11,0.207 0.212,0.419 0.303,0.637 1.994,4.726 -2.192,9.788 -7.278,9.123 l -2.774,-0.363 2.532,6.101 c 1.546,3.35 -0.193,7.296 -3.709,8.417 -2.973,0.946 -6.184,-0.489 -7.461,-3.335 l -7.472,-21.333 -1.061,-0.712 6.112,25.981 c 1.136,3.511 -1.061,7.222 -4.685,7.915 -3.065,0.586 -6.081,-1.221 -7.01,-4.199 L 22.833,20.489 21.13,42.179 c 0.32,3.675 -2.652,6.8 -6.339,6.664 C 11.673,48.729 9.138,46.292 8.898,43.181 L 8.427,15.73 C 5.403,17.75 0.868,19.092 -5.949,18.526 L 0.358,4.631 Z"
         style="fill:#ffffff;fill-opacity:1;fill-rule:nonzero;stroke:none"
         id="path90" />
    </g>
    <g
       id="g92"
       transform="matrix(0.75002655,0,0,-0.73306609,256.82178,153.67338)">
      <path
         d="m 0,0 c 0.166,2.674 4.631,31.831 4.631,31.831 0.195,0.795 0.038,1.616 -0.36,2.281 -0.403,0.663 -1.333,1.057 -2.026,1.206 -0.72,0.157 -1.427,0.02 -1.986,-0.354 C -0.307,34.595 -0.713,33.779 -0.713,33.779 -1.937,30.418 -9.144,5.462 -11.059,3.13 c -0.812,2.907 -0.988,5.68 -1,8.418 0.006,2.734 0.307,5.406 0.737,8.052 0.412,2.648 0.869,5.288 1.398,7.912 0.544,2.621 1.121,5.235 1.759,7.837 l 0.069,0.284 0.022,0.065 c 0.814,2.483 2.688,4.573 4.986,5.685 2.291,1.148 5.041,1.291 7.395,0.466 2.392,-0.809 4.377,-2.62 5.438,-4.827 1.095,-2.196 1.247,-4.846 0.451,-7.124 l 0.068,0.244 C 9.591,27.587 8.926,25.03 8.147,22.5 7.392,19.965 6.524,17.456 5.656,14.947 4.791,12.438 3.892,9.937 2.94,7.447 2.012,4.952 1.043,2.467 0,0"
         style="fill:#363e51;fill-opacity:1;fill-rule:nonzero;stroke:none"
         id="path94" />
    </g>
    <g
       id="g96"
       transform="matrix(0.75002655,0,0,-0.73306609,248.52755,151.37895)">
      <path
         d="m 0,0 c -0.759,2.093 -3.489,25.677 -3.489,25.677 -0.07,1.209 -0.286,1.739 -0.833,2.403 -0.562,0.657 -1.592,1.019 -2.441,1.111 -0.87,0.085 -1.748,-0.162 -2.433,-0.72 -0.689,-0.554 -1.151,-1.374 -1.245,-2.275 l 0.007,0.199 c -0.048,-2.309 -0.075,-4.618 -0.063,-6.926 0.006,-2.309 0.04,-4.618 0.101,-6.927 0.061,-2.309 0.146,-4.618 0.269,-6.927 0.101,-2.309 0.248,-4.618 0.445,-6.927 l -7.136,0.024 c 0.213,2.309 0.377,4.616 0.494,6.925 0.139,2.308 0.24,4.616 0.316,6.925 0.078,2.308 0.129,4.617 0.151,6.925 0.028,2.309 0.017,4.617 -0.015,6.926 l -10e-4,0.055 0.009,0.144 c 0.14,2.321 1.263,4.583 3.034,6.116 1.751,1.562 4.181,2.362 6.525,2.178 2.373,-0.149 4.648,-1.346 6.157,-3.157 1.547,-1.791 2.27,-4.267 2.029,-6.592 L 1.89,25.504 C 1.948,23.387 1.933,21.267 1.942,19.147 1.955,17.027 1.952,14.908 1.847,12.785 1.74,10.661 1.564,8.535 1.274,6.405 0.979,4.274 0.604,2.142 0,0"
         style="fill:#363e51;fill-opacity:1;fill-rule:nonzero;stroke:none"
         id="path98" />
    </g>
    <g
       id="g100"
       transform="matrix(0.75002655,0,0,-0.73306609,223.18333,148.68581)">
      <path
         d="m 0,0 4.032,1.269 c 2.202,0.693 4.545,1.183 7.008,1.292 2.453,0.119 5.042,-0.189 7.53,-1.041 2.484,-0.849 4.819,-2.32 6.535,-4.264 0.864,-0.964 1.594,-2.024 2.159,-3.153 0.286,-0.564 0.542,-1.139 0.764,-1.732 0.04,-0.112 0.075,-0.229 0.113,-0.343 0.811,-0.243 1.598,-0.57 2.323,-0.998 1.43,-0.813 2.605,-1.939 3.471,-3.17 0.859,-1.24 1.471,-2.557 1.84,-3.906 0.376,-1.342 0.568,-2.71 0.484,-4.06 -0.738,1.121 -1.531,2.132 -2.365,3.041 -0.844,0.9 -1.722,1.692 -2.655,2.277 -0.923,0.591 -1.857,0.998 -2.782,1.184 -0.917,0.21 -1.834,0.194 -2.754,0.082 l -2.839,2.09 c -0.058,0.016 -0.189,0.252 -0.297,0.394 -0.113,0.164 -0.234,0.331 -0.361,0.494 -0.245,0.332 -0.491,0.665 -0.765,0.974 -0.535,0.627 -1.086,1.209 -1.654,1.741 -1.146,1.046 -2.326,1.969 -3.742,2.538 -1.673,0.703 -3.614,0.854 -5.642,0.642 l 4.884,-9.539 0.46,-0.898 -0.078,-1.01 -0.338,-4.405 c 0.053,-2.217 0.521,-4.361 1.434,-6.247 0.925,-1.915 2.316,-3.543 4.024,-4.724 1.704,-1.189 3.739,-1.897 5.873,-2.103 2.156,-0.21 4.326,0.085 6.575,0.8 l 1.958,0.621 1.763,-1.599 0.283,-0.258 c 0.133,-0.116 0.28,-0.234 0.43,-0.35 0.301,-0.234 0.622,-0.457 0.954,-0.667 0.663,-0.421 1.372,-0.78 2.101,-1.072 1.458,-0.59 3.009,-0.884 4.583,-0.901 1.576,0 3.183,0.261 4.769,0.801 1.53,0.498 2.834,1.226 4.042,2.262 2.419,2.017 4.199,5.114 5.423,8.498 0.609,1.699 1.093,3.481 1.451,5.299 0.181,0.909 0.333,1.827 0.453,2.745 0.116,0.892 0.218,1.897 0.254,2.653 l 0.042,0.866 0.375,0.709 7.27,13.733 0.227,0.43 0.114,0.214 0.057,0.125 c 0.086,0.166 0.15,0.313 0.195,0.445 0.094,0.276 0.139,0.545 0.144,0.816 0.011,0.537 -0.146,1.111 -0.493,1.634 -0.007,0.009 -0.014,0.02 -0.02,0.03 -0.876,1.324 -2.681,1.671 -4.083,0.922 l -0.467,-0.25 c -0.579,-0.31 -1.047,-0.788 -1.347,-1.373 -0.816,-1.59 -1.65,-3.174 -2.514,-4.745 -1.957,-3.511 -4.033,-6.974 -6.502,-10.282 0.599,4.084 1.592,8.014 2.703,11.895 1.134,3.873 2.405,7.69 3.732,11.485 l 1.01,2.841 0.511,1.417 c 0.157,0.416 0.198,0.584 0.245,0.824 0.11,0.895 -0.169,1.868 -0.827,2.469 -0.619,0.606 -1.724,1.017 -2.549,0.856 -0.832,-0.15 -1.749,-0.851 -2.092,-1.592 -1.161,-2.273 -9.932,-21.788 -12.5,-26.014 0.63,4.905 1.507,9.725 2.491,14.506 0.498,2.388 1.001,4.775 1.581,7.136 0.567,2.364 1.357,4.65 2.156,6.933 l 0.051,0.146 0.061,0.135 c 1.303,2.891 4.097,5.051 7.215,5.537 1.551,0.263 3.177,0.13 4.654,-0.372 1.472,-0.504 2.838,-1.387 3.902,-2.531 2.158,-2.267 3.043,-5.617 2.298,-8.631 -0.181,-0.736 -0.495,-1.504 -0.734,-2.008 L 68.255,12.817 C 69.287,12.676 70.3,12.392 71.236,11.954 73.02,11.13 74.541,9.818 75.624,8.178 76.714,6.548 77.349,4.537 77.315,2.483 77.302,1.46 77.124,0.438 76.805,-0.513 76.642,-0.994 76.45,-1.441 76.243,-1.853 L 76.091,-2.166 75.979,-2.381 75.753,-2.81 68.906,-15.855 c -0.061,-0.873 -0.149,-1.651 -0.257,-2.487 -0.142,-1.08 -0.321,-2.15 -0.534,-3.218 -0.425,-2.133 -0.997,-4.252 -1.751,-6.345 -0.764,-2.089 -1.697,-4.159 -2.937,-6.129 -1.225,-1.97 -2.746,-3.853 -4.635,-5.434 -0.924,-0.806 -1.971,-1.493 -3.043,-2.124 -1.087,-0.584 -2.273,-1.113 -3.396,-1.473 -2.231,-0.753 -4.651,-1.172 -7.105,-1.161 -2.454,0.025 -4.931,0.502 -7.208,1.427 -1.141,0.459 -2.235,1.017 -3.273,1.676 -0.454,0.288 -0.893,0.602 -1.329,0.932 -2.386,-0.562 -4.951,-0.811 -7.484,-0.549 -3.253,0.314 -6.507,1.435 -9.25,3.352 -2.753,1.899 -4.977,4.543 -6.402,7.51 -1.436,2.97 -2.098,6.214 -2.148,9.371 l -0.003,0.168 0.014,0.165 0.282,3.626 -6.524,12.781 z"
         style="fill:#363e51;fill-opacity:1;fill-rule:nonzero;stroke:none"
         id="path102" />
    </g>
    <g
       id="g104"
       transform="matrix(0.75002655,0,0,-0.73306609,211.69125,148.51186)">
      <path
         d="m 0,0 v 12.703 c 0,1.096 -0.892,1.986 -1.987,1.986 h -5.11 c -1.095,0 -1.986,-0.89 -1.986,-1.986 V 0 Z m -22.948,-61.826 c -11.008,0 -19.963,8.955 -19.963,19.963 v 21.899 c 0,7.874 4.706,14.883 11.578,18.093 v 14.574 c 0,13.363 10.873,24.236 24.236,24.236 h 5.11 c 13.364,0 24.236,-10.873 24.236,-24.236 v -14.55 c 6.831,-3.174 11.579,-10.101 11.579,-18.117 v -21.899 c 0,-11.008 -8.955,-19.963 -19.963,-19.963 z"
         style="fill:#363e51;fill-opacity:1;fill-rule:nonzero;stroke:none"
         id="path106" />
    </g>
    <g
       id="g112"
       transform="matrix(0.75002655,0,0,-0.73306609,214.15374,170.80233)">
      <path
         d="m 0,0 c 0,4.338 -3.518,7.855 -7.856,7.855 -4.339,0 -7.856,-3.517 -7.856,-7.855 0,-3.537 2.337,-6.526 5.551,-7.512 v -5.797 h 4.61 v 5.797 C -2.338,-6.526 0,-3.537 0,0"
         style="fill:#363e51;fill-opacity:1;fill-rule:nonzero;stroke:none"
         id="path114" />
    </g>
    <path
       d="m 222.09052,153.21659 h -22.02453 v -14.01695 c 0,-3.39629 2.8276,-6.15996 6.30323,-6.15996 h 3.83189 c 3.47487,0 6.30319,2.76367 6.30319,6.15996 v 6.10058 h 7.06155 v -6.10058 c 0,-7.20237 -5.99501,-13.06177 -13.36474,-13.06177 h -3.83189 c -7.36976,0 -13.36548,5.8594 -13.36548,13.06177 v 14.13278 c -4.90968,0.70008 -8.68381,4.82065 -8.68381,9.81355 v 16.05414 c 0,5.48481 4.54891,9.93013 10.15986,9.93013 h 27.61073 c 5.61018,0 10.15912,-4.44532 10.15912,-9.93013 v -16.05414 c 0,-5.48406 -4.54894,-9.92938 -10.15912,-9.92938"
       style="fill:#faa73a;fill-opacity:1;fill-rule:nonzero;stroke:none;stroke-width:0.741496"
       id="path110" />
  </g>
</svg>
